<svg id="Camada_1" data-name="Camada 1" xmlns="http://www.w3.org/2000/svg" viewBox="0 0 2917.31 467.12"><defs><style>.cls-1{font-size:313.33px;font-family:GillSansMT-Bold, Gill Sans MT;font-weight:700;}.cls-1,.cls-4{fill:#fff;}.cls-2{letter-spacing:0.21em;}.cls-3{font-family:GillSansMT, Gill Sans MT;font-weight:400;letter-spacing:0.22em;}.cls-5{fill:#34e7e4;}</style></defs><text class="cls-1" transform="translate(45.56 317.07)">TEC<tspan class="cls-2" x="665.82" y="0">H</tspan><tspan class="cls-3" x="992.62" y="0">DINNER</tspan></text><path class="cls-4" d="M2700.17,101.09,2689,128.2a15.76,15.76,0,1,1-11-4.54L2689,97c-18.07-6.53-35.44-12.34-51.81-17.39V105l0,56.28,49.34,20.29a15.76,15.76,0,1,1-4.54,11l-44.79-18.43v27.3l0,27.23a16.6,16.6,0,1,1,.61,30.43l-.6-.26.07,122.11,63.56-64.13-12.52-5.15a15.75,15.75,0,1,1,4.54-11l17.06,7,53.72-54.19L2791.89,225l39.7-40,17.88-18c-30.42-15.9-65.89-32.41-104.29-48.21C2729.87,112.42,2714.82,106.53,2700.17,101.09Zm58.28,145.68a16.6,16.6,0,1,1-9-21.66A16.59,16.59,0,0,1,2758.45,246.77Zm.1-87.49a16.6,16.6,0,1,1-21.66,9A16.6,16.6,0,0,1,2758.55,159.28Z"/><path class="cls-5" d="M2759,85.19c-46.53-19.14-90.11-32.1-121.84-37.25l0,31.65c16.37,5,33.74,10.86,51.81,17.39q5.57,2,11.21,4.11c14.65,5.44,29.7,11.33,45,17.62,38.4,15.8,73.87,32.31,104.29,48.21l22.28-22.48C2845.59,125.78,2805.5,104.33,2759,85.19Z"/><path class="cls-5" d="M2745.92,190a16.6,16.6,0,1,0-9-21.67A16.61,16.61,0,0,0,2745.92,190Zm9.58-23.29a8.58,8.58,0,1,1-11.2,4.67A8.58,8.58,0,0,1,2755.5,166.69Z"/><path class="cls-5" d="M2727.75,234.15a16.6,16.6,0,1,0,21.67-9A16.6,16.6,0,0,0,2727.75,234.15Zm23.29,9.57a8.58,8.58,0,1,1-4.67-11.2A8.57,8.57,0,0,1,2751,243.72Z"/><path class="cls-5" d="M2659.5,250.1a16.59,16.59,0,0,0-22.27-21.4v10a8.59,8.59,0,1,1,0,10.15v10l.6.26A16.59,16.59,0,0,0,2659.5,250.1Z"/><path class="cls-5" d="M2691.75,207.2a15.76,15.76,0,1,0-5.22-25.64l-49.34-20.29v12.9L2682,192.6A15.77,15.77,0,0,0,2691.75,207.2Zm7.91-19.67a5.44,5.44,0,1,1-7.1,3A5.45,5.45,0,0,1,2699.66,187.53Z"/><path class="cls-5" d="M2683.13,286.07a15.75,15.75,0,1,0,5.22,25.63l12.52,5.15,9.08-9.17-17.06-7A15.75,15.75,0,0,0,2683.13,286.07Zm-7.91,19.66a5.44,5.44,0,1,1,7.1-3A5.44,5.44,0,0,1,2675.22,305.73Z"/><path class="cls-5" d="M2663.38,133.43A15.75,15.75,0,1,0,2689,128.2l11.15-27.11Q2694.53,99,2689,97l-11,26.68A15.77,15.77,0,0,0,2663.38,133.43Zm16.71.81a5.44,5.44,0,1,1-7.1,3A5.45,5.45,0,0,1,2680.09,134.24Z"/></svg>